# xmcd CD database file
#
# Track frame offsets:
#	150
#	27202
#	49435
#	71127
#	92030
#	118910
#	139007
#	152087
#	176785
#	203565
#	219545
#	243525
#
# Disc length: 3508 seconds
#
# Revision: 0
# Processed by: cddbd v1.5.1PL2 Copyright (c) Steve Scherf et al.
# Submitted via: CDex 1.51
#
DISCID=b40db20c
DTITLE=The California Browns Project - Night of a Thousands Rains
DYEAR=1998
DGENRE=Jazz
TTITLE0=El Ray del Vasilon
TTITLE1=Dark Canyon
TTITLE2=4/28/96
TTITLE3=You Made Me Smile
TTITLE4=Night Of A Thousand Rains
TTITLE5=The Squeeze
TTITLE6=For Long Remember
TTITLE7=An Hour A Week
TTITLE8=Cello Sonata
TTITLE9=Where Did The Time Go?
TTITLE10=Blood Song
TTITLE11=Mr. PV
EXTD=YEAR: 1998
EXTT0=
EXTT1=
EXTT2=
EXTT3=
EXTT4=
EXTT5=
EXTT6=
EXTT7=
EXTT8=
EXTT9=
EXTT10=
EXTT11=
PLAYORDER=
